<svg xmlns="http://www.w3.org/2000/svg" xmlns:xlink="http://www.w3.org/1999/xlink" width="128" zoomAndPan="magnify" viewBox="0 0 96 95.999999" height="128" preserveAspectRatio="xMidYMid meet" version="1.0"><defs><clipPath id="c26bbe5b92"><path d="M 35 22.207031 L 61 22.207031 L 61 63 L 35 63 Z M 35 22.207031 " clip-rule="nonzero"/></clipPath><clipPath id="3a658858c1"><path d="M 22.207031 54 L 73.957031 54 L 73.957031 73.957031 L 22.207031 73.957031 Z M 22.207031 54 " clip-rule="nonzero"/></clipPath></defs><g clip-path="url(#c26bbe5b92)"><path fill="#f06602" d="M 50.265625 54.207031 L 50.265625 24.480469 C 50.265625 23.878906 50.03125 23.300781 49.601562 22.871094 C 49.171875 22.453125 48.597656 22.207031 47.996094 22.207031 C 47.394531 22.207031 46.816406 22.453125 46.386719 22.871094 C 45.957031 23.300781 45.722656 23.878906 45.722656 24.480469 L 45.722656 54.207031 C 45.722656 54.207031 41.386719 49.875 38.96875 47.453125 C 38.539062 47.023438 37.960938 46.789062 37.359375 46.789062 C 36.757812 46.789062 36.179688 47.023438 35.75 47.453125 C 34.867188 48.339844 34.867188 49.773438 35.75 50.660156 L 46.472656 61.378906 C 46.875 61.785156 47.417969 62.003906 47.996094 62.003906 C 48.570312 62.003906 49.113281 61.785156 49.515625 61.378906 L 60.238281 50.660156 C 61.121094 49.773438 61.121094 48.339844 60.238281 47.453125 C 59.808594 47.023438 59.230469 46.789062 58.628906 46.789062 C 58.027344 46.789062 57.449219 47.023438 57.019531 47.453125 C 54.589844 49.875 50.265625 54.207031 50.265625 54.207031 Z M 50.265625 54.207031 " fill-opacity="1" fill-rule="evenodd"/></g><g clip-path="url(#3a658858c1)"><path fill="#f06602" d="M 22.207031 69.484375 C 22.207031 70.625 22.660156 71.71875 23.472656 72.515625 C 24.28125 73.328125 25.375 73.78125 26.503906 73.78125 L 69.484375 73.78125 C 70.625 73.78125 71.71875 73.328125 72.515625 72.515625 C 73.328125 71.707031 73.78125 70.613281 73.78125 69.484375 L 73.78125 56.480469 C 73.78125 55.226562 72.761719 54.207031 71.507812 54.207031 C 70.90625 54.207031 70.332031 54.453125 69.902344 54.871094 C 69.472656 55.300781 69.238281 55.878906 69.238281 56.480469 L 69.238281 67.101562 C 69.238281 68.292969 68.28125 69.25 67.089844 69.25 L 28.898438 69.25 C 27.707031 69.25 26.75 68.292969 26.75 67.101562 L 26.75 56.480469 C 26.75 55.878906 26.503906 55.300781 26.085938 54.871094 C 25.65625 54.441406 25.082031 54.207031 24.480469 54.207031 C 23.226562 54.207031 22.207031 55.226562 22.207031 56.480469 Z M 22.207031 69.484375 " fill-opacity="1" fill-rule="evenodd"/></g></svg>