<svg xmlns="http://www.w3.org/2000/svg" xmlns:xlink="http://www.w3.org/1999/xlink" width="128" zoomAndPan="magnify" viewBox="0 0 96 95.999999" height="128" preserveAspectRatio="xMidYMid meet" version="1.0"><defs><clipPath id="627656f0fb"><path d="M 24.582031 23.835938 L 71.082031 23.835938 L 71.082031 71.835938 L 24.582031 71.835938 Z M 24.582031 23.835938 " clip-rule="nonzero"/></clipPath></defs><g clip-path="url(#627656f0fb)"><path fill="#f06602" d="M 60.605469 67.011719 L 60.605469 69.132812 C 60.605469 70.796875 61.957031 72.148438 63.621094 72.148438 C 65.289062 72.148438 66.640625 70.796875 66.640625 69.132812 L 66.640625 60.390625 C 66.640625 60.378906 66.640625 60.367188 66.640625 60.359375 C 66.628906 59.507812 66.265625 58.667969 65.5625 58.078125 C 65.007812 57.609375 64.328125 57.378906 63.652344 57.371094 C 63.640625 57.371094 63.632812 57.371094 63.621094 57.371094 L 54.878906 57.371094 C 53.214844 57.371094 51.863281 58.722656 51.863281 60.390625 C 51.863281 61.9375 53.027344 63.210938 54.527344 63.386719 C 52.511719 64.207031 50.308594 64.65625 48.003906 64.65625 C 38.410156 64.65625 30.621094 56.867188 30.621094 47.277344 C 30.621094 45.609375 29.269531 44.257812 27.605469 44.257812 C 25.9375 44.257812 24.585938 45.609375 24.585938 47.277344 C 24.585938 60.199219 35.078125 70.691406 48.003906 70.691406 C 52.640625 70.691406 56.964844 69.339844 60.605469 67.011719 Z M 29.363281 35.652344 C 29.375 36.5 29.738281 37.34375 30.441406 37.929688 C 30.996094 38.398438 31.675781 38.632812 32.351562 38.636719 C 32.363281 38.636719 32.371094 38.640625 32.382812 38.640625 L 41.125 38.640625 C 42.789062 38.640625 44.140625 37.285156 44.140625 35.621094 C 44.140625 34.074219 42.976562 32.796875 41.476562 32.625 C 43.492188 31.804688 45.695312 31.355469 48.003906 31.355469 C 57.59375 31.355469 65.382812 39.140625 65.382812 48.734375 C 65.382812 50.398438 66.734375 51.75 68.398438 51.75 C 70.066406 51.75 71.417969 50.398438 71.417969 48.734375 C 71.417969 35.808594 60.925781 25.316406 48.003906 25.316406 C 43.363281 25.316406 39.039062 26.667969 35.398438 29 L 35.398438 26.878906 C 35.398438 25.214844 34.046875 23.859375 32.382812 23.859375 C 30.714844 23.859375 29.363281 25.214844 29.363281 26.878906 L 29.363281 35.621094 C 29.363281 35.632812 29.363281 35.640625 29.363281 35.652344 Z M 29.363281 35.652344 " fill-opacity="1" fill-rule="evenodd"/></g></svg>